<?xml version="1.0" encoding="UTF-8"?>
<svg id="Layer_1" xmlns="http://www.w3.org/2000/svg" version="1.1" viewBox="0 0 32 32">
  <!-- Generator: Adobe Illustrator 29.8.4, SVG Export Plug-In . SVG Version: 2.1.1 Build 6)  -->
  <defs>
    <style>
      .st0 {
        stroke-linecap: round;
      }

      .st0, .st1 {
        fill: none;
        stroke: #ffffff;
        stroke-miterlimit: 10;
        stroke-width: .7282142px;
      }
    </style>
  </defs>
  <g>
    <g>
      <path class="st0" d="M6.9309807,21.7723179l-2.0384717-3.5305958-.5541553-.9601612c-.0575991-.0987549-.1042476-.2002563-.1426411-.3045044-.3429146-.9135284.0137134-1.9642067.8860855-2.466238.1234527-.0713291.2523804-.1289282.3840709-.1755762"/>
      <path class="st1" d="M12.359808,24.5946865l-.0656872,5.4254627c-.0064363.5316544-.4392538.9592628-.9709473.9592628h-4.2887897c-.5478992,0-.9872994-.4530315-.9705653-1.0006752l.0467243-1.5291309c0-.1920357-.0630908-.3785782-.1783223-.5322037L.8872743,21.212738c-.4169894-.5541553-.5953116-1.2536983-.4965395-1.9395256l1.2454595-8.4768372c.1700844-1.1768932,1.2646645-1.988904,2.4415411-1.8160744,1.1741471.170084,1.9889045,1.2646646,1.8160906,2.4415417l-.4279566,2.9134007c.2057486-.0658369.4169726-.0987558.6282134-.0987558.4334488,0,.8586593.1399117,1.209795.4005299.2167325.1591005.4060221.3675947.5486631.6145l1.6405144,2.8420725,2.1005955,3.640377c.5019264.8698483.7661562,1.8564472.7661572,2.8607197Z"/>
    </g>
    <g>
      <path class="st1" d="M19.640192,24.5946865l.0656872,5.4254627c.0064373.5316544.4392548.9592628.9709473.9592628h4.2887897c.5478992,0,.987299-.4530315.9705658-1.0006752l-.0467243-1.5291309c0-.1920357.0630913-.3785782.1783218-.5322037l5.0449448-6.7046642c.4169903-.5541553.5953121-1.2536983.4965401-1.9395256l-1.2454605-8.4768372c-.170084-1.1768932-1.2646637-1.988904-2.4415417-1.8160744-1.1741467.170084-1.988905,1.2646646-1.8160915,2.4415417l.4279575,2.9134007c-.2057495-.0658369-.4169731-.0987558-.6282139-.0987558-.4334488,0-.8586597.1399117-1.209795.4005299-.216732.1591005-.406023.3675947-.5486641.6145l-1.6405144,2.8420725-2.1005955,3.640377c-.5019264.8698483-.7661552,1.8564472-.7661533,2.8607197Z"/>
      <path class="st0" d="M25.0690193,21.7723179l2.0384712-3.5305958.5541553-.9601612c.0575981-.0987549.104248-.2002563.1426411-.3045044.3429146-.9135284-.0137138-1.9642067-.8860855-2.466238-.1234531-.0713291-.2523804-.1289282-.3840714-.1755762"/>
    </g>
  </g>
  <g>
    <g>
      <g>
        <circle class="st1" cx="8.9903297" cy="4.3459305" r="3.3253439"/>
        <path class="st1" d="M5.506669,9.846489c.1878872-.3863106.4407449-.7375011.7410131-1.0377693.7023821-.7006264,1.6699133-1.134347,2.7428021-1.134347,1.86658,0,3.425868,1.3152103,3.798131,3.0711651v.0052681"/>
        <path class="st1" d="M19.3260727,11.6186275c0,1.8359203-1.4900723,3.3238277-3.326004,3.3238277s-3.3259916-1.4879074-3.3259916-3.3238277c0-.300189.0391531-.5894909.1131182-.8657551v-.0021772c.3850145-1.4161062,1.6771288-2.4580717,3.2128735-2.4580717,1.5357437,0,2.8300362,1.0419655,3.2107086,2.4580717.0761433.2762642.1152954.5677433.1152954.8679323Z"/>
      </g>
      <g>
        <circle class="st1" cx="23.008564" cy="4.3459305" r="3.3253439"/>
        <path class="st1" d="M19.2118988,10.7508059c.1562805-.7497931.5320549-1.4205675,1.0553284-1.9420862.7023811-.7006264,1.671669-1.134347,2.7428017-1.134347,1.5294361,0,2.8516712.8850012,3.4838142,2.1703606"/>
      </g>
    </g>
    <path class="st0" d="M19.8793259,18.8227348c0-2.1426239-1.7369404-3.8795643-3.8795643-3.8795643h-.0000076c-2.1426239,0-3.8795643,1.7369404-3.8795643,3.8795643"/>
  </g>
</svg>