<?xml version="1.0" encoding="UTF-8"?>
<svg id="Layer_1" xmlns="http://www.w3.org/2000/svg" version="1.1" viewBox="0 0 32 32">
  <!-- Generator: Adobe Illustrator 29.8.4, SVG Export Plug-In . SVG Version: 2.1.1 Build 6)  -->
  <defs>
    <style>
      .st0 {
        stroke-linecap: round;
      }

      .st0, .st1 {
        fill: none;
        stroke: #5d9d5c;
        stroke-miterlimit: 10;
        stroke-width: .6786272px;
      }
    </style>
  </defs>
  <circle class="st1" cx="22.7388349" cy="12.5310137" r="2.2610166"/>
  <circle class="st1" cx="7.8421783" cy="3.4005134" r="2.2610166"/>
  <path class="st1" d="M29.4223491,19.3355615c.0619096.4133898-.0816797.7920866-.3438957,1.0543026-.2213735.2213735-.5272975.3581873-.8639696.3581873h-7.7373025v-2.4443232l7.6978509-.0000006c.6094854,0,1.1570466.4290704,1.2473169,1.0318338Z"/>
  <path class="st1" d="M24.900036,17.060766l-.0000002,1.2429624h-4.4228546v-1.3005708c0-1.3026853,1.1276162-2.3427272,2.4615975-2.1970034,1.1287317.1233024,1.9612575,1.1191653,1.9612573,2.2546118Z"/>
  <circle class="st1" cx="20.4778183" cy="25.7960179" r="1.6251281"/>
  <path class="st1" d="M25.4108158,25.5248233c.0747408,1.3946295-.4296664,2.6715475-1.2948062,3.6123503-.9487394,1.032777-2.3324657,1.6611413-3.8617868,1.5939005-2.5765733-.1132862-4.6600271-2.2475928-4.7152691-4.8260638-.0618409-2.8864801,2.3524788-5.2254146,5.2632735-5.0389133,2.4757187.1586249,4.4758286,2.181486,4.6085885,4.6587264Z"/>
  <circle class="st1" cx="30.0621687" cy="29.1372526" r="1.5985177"/>
  <polyline class="st1" points="27.6087818 20.7480583 29.6487971 27.5921789 29.6487971 27.5937162"/>
  <line class="st1" x1="28.4635282" y1="29.1371792" x2="24.1160051" y2="29.1371792"/>
  <path class="st0" d="M8.3800588,13.8009396c-.3011487-.151569-.5365744-.4079046-.6620325-.7208326l-.0727981-.1815789-1.5412236-3.8476709"/>
  <path class="st1" d="M2.7673254,15.8870663l1.4937851-8.0277938c.2544943-1.3676854,1.5068247-2.402916,2.8859337-2.2201887,1.2453521.1650049,2.1450013,1.1815908,2.2283482,2.363392.0373385.5294336.0813688,1.0583649.230789,1.5676465l.4370381,1.4895943c.1654559.5639129.4261915.8746364.7764516,1.0505335l3.3207076,1.6676264c.4073825.2044654.661043.5934008.7102382,1.0146233.0344445.2864325-.0273128.5899577-.200398.8601841-.3664254.5720752-1.1438301.7226683-1.7509032.4177097l-2.5561037-1.2840396-1.9631526-.985414-.0000005-.0000002"/>
  <path class="st1" d="M8.3800593,13.8009399l-.444781,2.3939925c-.0508029.2734419-.0198276.5557941.0890491.8117185l1.8238646,4.2871546.4912096,1.1552471c.1141016.268349.1729111.5569536.1729111.8485533v6.174701c0,.3843284-.1552608.730224-.4058437.9823457-.2755181.2738365-.6648593.4338498-1.0917852.4017906-.7085106-.0532042-1.2803003-.7564247-1.2803-1.4669301l.0000017-5.6326615c.0000001-.3442667-.1340352-.6750084-.3737061-.9221469l-.7116369-.7338096-2.3782198-2.4504784c-.780958-.817852-1.6264805-1.6480052-1.5772854-3.1084532.0015388-.0614869.0061459-.1229832.0107623-.1844795.0076847-.0799339.0153694-.1598772.0261317-.2382817.0030776-.0261317.0076847-.0538022.0123011-.0814727.0061459-.050734.0153694-.101468.0245929-.1506631"/>
  <path class="st1" d="M14.8506153,14.792505h3.0946125c1.3983605,0,2.5319557,1.1335952,2.5319557,2.5319557v.9792688"/>
  <line class="st1" x1="18.0974219" y1="21.4675211" x2="18.0974219" y2="14.7971169"/>
  <path class="st1" d="M6.6490425,22.1008951l-.0599481,1.1314606-.0071985.1348101c-.0436242.8169739-.3022939,1.6079257-.7498301,2.2928059l-2.9402184,4.4995192c-.2659523.4073919-.7117676.6287654-1.165277.6287654-.2598064,0-.5242292-.0722586-.7578945-.22599-.642596-.4196836-.8224685-1.2805849-.4027754-1.923181l2.7150539-4.1559036c.1715616-.2626076.2439662-.5777412.2042312-.8888959l-.5195406-4.0683913c-.101468-.8486002-.3228415-1.9616138-.2721075-2.9839312"/>
</svg>