<?xml version="1.0" encoding="UTF-8"?>
<svg id="Layer_1" xmlns="http://www.w3.org/2000/svg" version="1.1" viewBox="0 0 32 32">
  <!-- Generator: Adobe Illustrator 29.8.4, SVG Export Plug-In . SVG Version: 2.1.1 Build 6)  -->
  <defs>
    <style>
      .st0, .st1 {
        stroke-linecap: round;
      }

      .st0, .st1, .st2, .st3 {
        fill: none;
        stroke: #ffffff;
        stroke-width: .7529037px;
      }

      .st0, .st2 {
        stroke-miterlimit: 10;
      }

      .st1, .st3 {
        stroke-linejoin: round;
      }
    </style>
  </defs>
  <circle class="st2" cx="20.5599903" cy="4.3028915" r="2.5382225"/>
  <path class="st2" d="M29.7046993,16.0292262l-1.1313775,5.1629397c-.0791466.3697113-.034692.7551838.1265314,1.0971745l2.7840844,5.8737366c.3434309.7248347.0310735,1.5911857-.6937507,1.9346166-.2001978.0949165-.4107393.1380613-.6195534.1380613-.5453562,0-1.0682762-.307196-1.3150737-.8335605l-2.948315-6.2204309c-.0560267-.1188103-.0983055-.2436288-.1260153-.3720307l-.2551307-1.1822291"/>
  <path class="st0" d="M22.3282013,13.0848334l-.49255.9735755c-.2230585.4408979-.624606.7648671-1.1026991.8896594l-4.2173547,1.1008173c-.7795888.2034889-1.5765281-.263543-1.7799993-1.0431364l-.0000008-.0000029c-.203493-.7796768.2636785-1.5766741,1.0433908-1.780031l3.3201327-.865924.0000119.0000572c.239294-.0624486.4402914-.2245692.5519834-.445219l.005902-.0116601c.4509035-.8908185.7627058-1.867944.7425442-2.866175-.0203466-1.0073918.4941485-1.9948592,1.4298825-2.5358511.4504292-.2588688.9422967-.3831313,1.4272333-.3831313.9871479,0,1.9484048.5125657,2.4782347,1.4289608l3.7087252,6.4251201c.4358788.8183633.4004628,1.7391819.1363443,2.5179351-.2797928.824969-.7006816,1.5307766-1.4496695,2.2901188l-2.6042142,2.8475567-.1065075.1167315c-.2900962.3179437-.45092.732811-.45092,1.1632108l.0000092,5.7885568c.0000012.7752314-.5690009,1.4776579-1.3420705,1.5355118-.4468415.0334401-.8530098-.1335095-1.1396495-.4220253-.2640512-.2623237-.4262656-.6247358-.4262656-1.0268483v-6.1739871c0-.2440328.0517542-.4852911.1518469-.7078523l1.9516242-4.3395342c.2060694-.4582057.1792707-.9875445-.0720213-1.4225955l-1.7639435-3.0538384"/>
  <line class="st0" x1="24.0628634" y1="9.662201" x2="22.3282013" y2="13.0848334"/>
  <path class="st0" d="M14.6879563,30.2357548v-12.8276321c0-.7243699.5872178-1.3115878,1.3115878-1.3115878h.0000026c.7243699,0,1.3115878.5872178,1.3115878,1.3115878v.7700337"/>
  <path class="st2" d="M6.6864104,8.9412235c-.6558866-.995199-1.9938888-1.2697981-2.9890877-.6139115-.9934482.6576373-1.2680474,1.9956395-.6121608,2.9890877.6558866.995199,1.9938888,1.2697981,2.9890877.6139115.9934482-.6558866,1.2680474-1.9938888.6121608-2.9890877Z"/>
  <line class="st3" x1="4.8726732" y1="25.4950093" x2="2.3641217" y2="19.8035616"/>
  <path class="st3" d="M2.3182467,20.079872c.0380124-.1665943.0576946-.3368457.0586959-.5077188l.0278607-4.754618c.0061372-1.6355206,1.5837292-2.8977023,3.2993826-2.3619469.7453614.2327576,1.3044574.816861,1.5529861,1.5312989.1876234.5393554.610273.9625932,1.1629926,1.1061477l.0000013.0000003c.1908363.049562.3919849.0423872.578805-.0206455l2.0777735-.701036c.5469516-.1845402,1.1775611-.0037117,1.4864778.4839168.1401976.2213034.2014941.455015.2014941.6836445,0,.5194651-.3279047,1.0044122-.8473698,1.1804358l-2.8100694.946812c-.252028.0849172-.5232184.095236-.7809706.029716l-.9426189-.2396115-.0122534,2.107217c-.0010269.1765984.0179165.3527467.0564693.5250887l1.8119125,8.0997626c.1491228.6666211-.1273393,1.3909369-.7344285,1.7040887-.2168038.1118328-.4443088.1638519-.6695221.1638519-.5608824,0-1.0958948-.3261772-1.3374888-.8715228l-1.6257036-3.6897441-1.6964459,3.848514c-.3040111.6896719-1.0833127,1.0342527-1.7980472.7950354l-.0057762-.0019333c-.7112031-.2380353-1.1260087-.9765818-.9591712-1.7077698l1.9050141-8.3489836Z"/>
  <line class="st1" x1="7.3836315" y1="17.4564842" x2="5.2094318" y2="16.9045254"/>
</svg>