<?xml version="1.0" encoding="UTF-8"?>
<svg id="Layer_1" xmlns="http://www.w3.org/2000/svg" version="1.1" viewBox="0 0 32 32">
  <!-- Generator: Adobe Illustrator 29.8.4, SVG Export Plug-In . SVG Version: 2.1.1 Build 6)  -->
  <defs>
    <style>
      .st0, .st1 {
        stroke-linecap: round;
      }

      .st0, .st1, .st2 {
        fill: none;
        stroke: #5d9d5c;
        stroke-width: .7165413px;
      }

      .st0, .st2 {
        stroke-miterlimit: 10;
      }

      .st1 {
        stroke-linejoin: round;
      }
    </style>
  </defs>
  <path class="st1" d="M28.6190794,11.6427199h0c-.4690328-.3615407-1.0634696-.578145-1.7116425-.578145-.1091222,0-.2182345.0065207-.3240865.017912-.2052031-1.0764911-.5325499-1.9086947-.8517558-2.3191009-1.2116663-1.5618057-2.2067282-.9657486-3.2734482-.4462302-1.0650998.5211486-2.7506794,1.1155854-6.5159629,1.1155854s-5.4508631-.5944368-6.5159629-1.1155854c-1.06672-.5195184-2.0617819-1.1155755-3.2734482.4462302-.3175757.408776-.6449225,1.2377292-.8501256,2.3093298-.0700279-.0048806-.1400558-.0081409-.2100837-.0081409-.7589253,0-1.4445525.2980335-1.9412684.7752072h0c-.1319248-1.262152.6758561-3.8711454,1.8370367-5.3564125.4739233-.604198.1579777-1.4689753-.1579678-2.2604742-.3143154-.791489-.9462064-3.8646247,2.4721881-3.8646247h8.4898049c1.6302134,0,11.3284242.5846558,12.8267227,11.2844493Z"/>
  <path class="st2" d="M14.5578878,24.5427309c.0521159,1.6041505-1.2409796,2.2507031-3.2604267,3.2604267-.2556888.1286545-.5146279.2670801-.8028903.3859734-.5537123.2328862-1.218177.4006251-2.1969571.3061744-1.7230438-.1644885-2.6269055-2.5259341-1.6790689-3.8206597.3615407-.4934555.8468652-.7296021,1.3647535-.8875798.5325499-.1612281,1.0992936-.239397,1.6057806-.426688.9983223-.3680614,1.1563-.7882287,2.0764436-1.0260054,1.7328149-.4446,2.8386193.6058282,2.8923653,2.2083584Z"/>
  <path class="st1" d="M23.9026989,23.770784c-.5146379-.151457-1.0618394-.231256-1.5487842-.4104061-.9999525-.3680614-1.1562901-.7882287-2.0764436-1.0260054-1.7328149-.4446-2.8402495.6058282-2.8923653,2.2083584-.0521159,1.6041505,1.2409796,2.2507031,3.2604267,3.2604267.2442875.1221437.488575.2524284.7605456.3680614-.1547174.1661087-.3175757.3322274-.488575.5015965-1.591119,1.5699566-4.3727419,2.7360178-4.9753196,2.9689139-.6025778-.2328961-3.3842006-1.3989573-4.9753196-2.9689139-.1644885-.1628583-.3224662-.3240865-.4722931-.4836844.2882624-.1188933.5472016-.2573189.8028903-.3859734,2.0194471-1.0097236,3.3125426-1.6562763,3.2604267-3.2604267-.053746-1.6025302-1.1595504-2.6529584-2.8923653-2.2083584-.9201435.2377767-1.0781213.657944-2.0764436,1.0260054-.506487.187291-1.0732307.2654599-1.6057806.426688-.1563476-1.012974.0488555-1.8858922.4934555-2.595962,1.4103586-2.2539536,5.2212373-2.8711929,7.4654297-1.1693215,2.2441924-1.7018714,6.0550711-1.084632,7.4654297,1.1693215.4413397.7051793.6481729,1.5732169.4950857,2.5796801Z"/>
  <path class="st1" d="M23.64538,28.4953054c-1.004833.0960808-1.6790689-.0814292-2.2393019-.3240865-.2719706-.115633-.5162581-.2459177-.7605456-.3680614-2.0194471-1.0097236-3.3125426-1.6562763-3.2604267-3.2604267.0521159-1.6025302,1.1595504-2.6529584,2.8923653-2.2083584.9201535.2377767,1.0764911.657944,2.0764436,1.0260054.4869448.1791501,1.0341463.2589491,1.5487842.4104061.5406908.1563476,1.0471778.3924842,1.4217499.9038617.9478366,1.2947256.0439749,3.6561712-1.6790689,3.8206597Z"/>
  <path class="st1" d="M26.4188619,16.3314173c-.4543811,1.7409558-1.3745246,3.4753909-3.0112487,4.8596866-1.4103586-2.2539536-5.2212373-2.8711929-7.4654297-1.1693215-2.2441924-1.7018714-6.0550711-1.084632-7.4654297,1.1693215-1.6318336-1.3794052-2.5503569-3.1089597-3.0063582-4.8434048-.2850021-1.0764911-.3908639-2.1546124-.3778325-3.1529347.0081409-.7670663.0879399-1.4868972.2100837-2.1220487.2052031-1.0716006.5325499-1.9005538.8501256-2.3093298,1.2116663-1.5618057,2.2067282-.9657486,3.2734482-.4462302,1.0650998.5211486,2.7506794,1.1155854,6.5159629,1.1155854s5.4508631-.5944368,6.5159629-1.1155854c1.06672-.5195184,2.0617819-1.1155755,3.2734482.4462302.3192059.4104061.6465527,1.2426098.8517558,2.3191009.0928205.4836944.1612281,1.0162443.1921716,1.5813578.0602568,1.1351276-.0260629,2.4021602-.3566601,3.6675725Z"/>
  <path class="st0" d="M29.6548559,13.7191635c0,1.4657249-1.2295783,2.6545985-2.747419,2.6545985-.1661187,0-.3306072-.0146616-.488575-.0423448.3305972-1.2654123.4169169-2.5324449.3566601-3.6675725-.0309435-.5651136-.0993511-1.0976635-.1921716-1.5813578.1058519-.0113913.2149642-.017912.3240865-.017912.6481729,0,1.2426098.2166043,1.7116425.578145.6318811.4869547,1.0357765,1.236099,1.0357765,2.0764436Z"/>
  <path class="st0" d="M5.4703956,16.3476991c-.1237739.017912-.249178.0260629-.3778325.0260629-1.5178407,0-2.747419-1.1888737-2.747419-2.6545985,0-.7328624.3078046-1.3973172.8061507-1.8793814.4967159-.4771737,1.182343-.7752072,1.9412684-.7752072.0700279,0,.1400558.0032603.2100837.0081409-.1221437.6351514-.2019427,1.3549824-.2100837,2.1220487-.0130314.9983223.0928304,2.0764436.3778325,3.1529347Z"/>
  <line class="st0" x1="11.5999785" y1="12.8293478" x2="11.5999785" y2="13.7194629"/>
  <line class="st0" x1="20.3946805" y1="12.8293478" x2="20.3946805" y2="13.7194629"/>
  <path class="st0" d="M17.1700199,13.5846918c-.2537517.4115267-.708645.6858277-1.2276047.6858277-.5187085,0-.9734126-.2740354-1.227236-.6852301"/>
</svg>