<?xml version="1.0" encoding="UTF-8"?>
<svg id="v2" xmlns="http://www.w3.org/2000/svg" viewBox="0 0 68.3 68.3">
  <defs>
    <style>
      .cls-1 {
        fill: #000;
      }

      .cls-1, .cls-3, .cls-5, .cls-6 {
        stroke-width: 0px;
      }

      .cls-3 {
        fill: #000;
      }

      .cls-5 {
        fill: #000;
      }

      .cls-6 {
        fill: #000;
      }
    </style>
  </defs>
  <path class="cls-3" d="M7.1,30.3c3.2,0,5.8-2.6,5.8-5.8s-2.6-5.8-5.8-5.8-5.8,2.6-5.8,5.8.1,1.3.3,1.9c-.9.3-1.6,1.2-1.6,2.3s1.1,2.4,2.4,2.4,1.8-.5,2.2-1.3c.8.4,1.6.6,2.5.6Z"/>
  <circle class="cls-1" cx="53.5" cy="5.8" r="5.8"/>
  <path class="cls-6" d="M64.6,14.6c-10.1-4.5-24.7,6.7-30,13.1s-3.1,3.9-1.7,4.8,2.2-1.4,4.7-3.8c7.1-6.9,15.8-11,20.7-7.7,7.4,5-1.6,22.3-20.3,36.9-3.6,2.8-6.5,3.8-6,4.8s3.4-.2,7.3-2.6c27.1-16.4,34.4-41.4,25.2-45.5Z"/>
  <path class="cls-5" d="M9.9,31.7c-11.8,5.3-1.5,19,8.3,24.6,1.9,1.1,5,2.9,5.4,2.2s-1.5-1.2-3.6-3c-4.8-4.4-12.1-12.5-8-17.8,4.9-6.4,16.2-1.3,19.3.8.6.4,1.9.5,1.9-.2,0-1.8-13.6-10.8-23.3-6.4Z"/>
</svg>