<?xml version="1.0" encoding="UTF-8"?>
<svg id="v2" xmlns="http://www.w3.org/2000/svg" viewBox="0 0 293.4 62.9">
  <defs>
    <style>
      .cls-1 {
        fill: #fff;
      }

      .cls-1, .cls-2, .cls-3, .cls-4, .cls-5, .cls-6 {
        stroke-width: 0px;
      }

      .cls-2 {
        fill: #fff;
      }

      .cls-3 {
        fill: #fff;
      }

      .cls-4 {
        fill: #fff;
      }

      .cls-5 {
        fill: #fff;
      }

      .cls-6 {
        fill: #fff;
      }
    </style>
  </defs>
  <g>
    <path class="cls-2" d="M199.9,22.6h-5.7l-1.2,2.7h-1.1l4.7-10.2h1.1l4.7,10.2h-1.1l-1.2-2.7ZM199.5,21.7l-2.4-5.5-2.4,5.5h4.9Z"/>
    <path class="cls-2" d="M205.4,16.1h-3.6v-.9h8.2v.9h-3.6v9.2h-1.1v-9.2Z"/>
    <path class="cls-2" d="M218.8,25.3l-2.3-3.3c-.3,0-.5,0-.8,0h-2.7v3.2h-1.1v-10.2h3.8c2.6,0,4.2,1.3,4.2,3.5s-.8,2.7-2.3,3.2l2.5,3.5h-1.2ZM218.7,18.6c0-1.6-1.1-2.6-3.1-2.6h-2.7v5.1h2.7c2,0,3.1-.9,3.1-2.5Z"/>
    <path class="cls-2" d="M222.3,15.1h1.1v10.2h-1.1v-10.2Z"/>
    <path class="cls-2" d="M226.6,21v-5.8h1.1v5.8c0,2.4,1.1,3.5,3.1,3.5s3.1-1.1,3.1-3.5v-5.8h1v5.8c0,2.9-1.6,4.4-4.2,4.4s-4.2-1.5-4.2-4.4Z"/>
    <path class="cls-2" d="M248.8,15.1v10.2h-1v-8.1l-4,6.8h-.5l-4-6.8v8.1h-1v-10.2h.9l4.4,7.5,4.4-7.5h.9Z"/>
    <path class="cls-2" d="M193.5,32.6h1.1v9.2h5.7v.9h-6.8v-10.2Z"/>
    <path class="cls-2" d="M209.3,41.8v.9h-7.2v-10.2h7v.9h-5.9v3.6h5.3v.9h-5.3v3.8h6.1Z"/>
    <path class="cls-2" d="M219,37.7h1v3.9c-1,.9-2.3,1.3-3.7,1.3-3.1,0-5.4-2.2-5.4-5.2s2.3-5.2,5.4-5.2,2.9.5,3.8,1.5l-.7.7c-.9-.8-1.9-1.2-3.1-1.2-2.5,0-4.4,1.8-4.4,4.2s1.8,4.2,4.3,4.2,1.9-.2,2.7-.8v-3.4Z"/>
    <path class="cls-2" d="M229.4,40.1h-5.7l-1.2,2.7h-1.1l4.7-10.2h1.1l4.7,10.2h-1.1l-1.2-2.7ZM229,39.2l-2.4-5.5-2.4,5.5h4.9Z"/>
    <path class="cls-2" d="M232.4,37.7c0-3,2.3-5.2,5.3-5.2s2.8.5,3.7,1.5l-.7.7c-.8-.8-1.8-1.2-3-1.2-2.5,0-4.3,1.8-4.3,4.2s1.8,4.2,4.3,4.2,2.2-.4,3-1.2l.7.7c-.9,1-2.2,1.5-3.7,1.5-3.1,0-5.3-2.2-5.3-5.2Z"/>
    <path class="cls-2" d="M247,39.3v3.5h-1.1v-3.5l-4.1-6.7h1.1l3.5,5.7,3.5-5.7h1.1l-4.1,6.7Z"/>
    <path class="cls-2" d="M194.6,51v4h5.3v.9h-5.3v4.3h-1.1v-10.2h7v.9h-5.9Z"/>
    <path class="cls-2" d="M201.7,55.1c0-3,2.3-5.2,5.4-5.2s5.3,2.2,5.3,5.2-2.3,5.2-5.3,5.2-5.4-2.2-5.4-5.2ZM211.3,55.1c0-2.4-1.8-4.2-4.3-4.2s-4.3,1.8-4.3,4.2,1.8,4.2,4.3,4.2,4.3-1.8,4.3-4.2Z"/>
    <path class="cls-2" d="M214.7,55.9v-5.8h1.1v5.8c0,2.4,1.1,3.5,3.1,3.5s3.1-1.1,3.1-3.5v-5.8h1v5.8c0,2.9-1.6,4.4-4.2,4.4s-4.2-1.5-4.2-4.4Z"/>
    <path class="cls-2" d="M234.9,50v10.2h-.9l-6.5-8.3v8.3h-1.1v-10.2h.9l6.6,8.3v-8.3h1.1Z"/>
    <path class="cls-2" d="M238.2,50h4.1c3.3,0,5.5,2.1,5.5,5.1s-2.2,5.1-5.5,5.1h-4.1v-10.2ZM242.3,59.3c2.7,0,4.4-1.7,4.4-4.2s-1.7-4.2-4.4-4.2h-3v8.3h3Z"/>
    <path class="cls-2" d="M256.4,57.5h-5.7l-1.2,2.7h-1.1l4.7-10.2h1.1l4.7,10.2h-1.1l-1.2-2.7ZM256,56.6l-2.4-5.5-2.4,5.5h4.9Z"/>
    <path class="cls-2" d="M261.9,51h-3.6v-.9h8.2v.9h-3.6v9.2h-1.1v-9.2Z"/>
    <path class="cls-2" d="M268.3,50h1.1v10.2h-1.1v-10.2Z"/>
    <path class="cls-2" d="M271.8,55.1c0-3,2.3-5.2,5.4-5.2s5.3,2.2,5.3,5.2-2.3,5.2-5.3,5.2-5.4-2.2-5.4-5.2ZM281.4,55.1c0-2.4-1.8-4.2-4.3-4.2s-4.3,1.8-4.3,4.2,1.8,4.2,4.3,4.2,4.3-1.8,4.3-4.2Z"/>
    <path class="cls-2" d="M293.4,50v10.2h-.9l-6.5-8.3v8.3h-1.1v-10.2h.9l6.6,8.3v-8.3h1.1Z"/>
  </g>
  <g>
    <path class="cls-4" d="M86.5,15.6c1.6-.1,3.6-.6,4.7-1.5h.7l11.1,34.9c1.6,4.8,2.9,10,5.8,10.1v1h-17.6v-1c4.1,0,4.2-3.2,2.9-7.6l-1.9-6.2h-12.5l-1,3.4c-1.6,5.7-1.4,10.5,3,10.5v1h-11.4v-1c2.9-.3,4.7-5.3,6.4-11.1l9.7-32.4ZM91.7,43.4l-5.8-19h-.1l-5.4,19h11.4Z"/>
    <path class="cls-4" d="M117.6,21.4c0-3-1.3-5.8-4.6-5.8v-1h18.3v1c-3.3,0-4.6,2.8-4.6,5.8v37h6c6.7,0,12.1-7.3,13.8-15.1h1l-1.9,16.8h-32.6v-1c3.3,0,4.6-2.7,4.6-5.7v-32Z"/>
    <path class="cls-4" d="M156,21.4c0-3-1.3-5.7-4.6-5.7v-1h29.4l1.9,13h-1c-1.3-6.6-6.1-11.4-12.2-11.4h-4.4v18.8h3.2c4.4,0,6.9-1.6,7.5-5.5h.8v12.7h-.8c-.6-4-3.1-5.8-7.5-5.8h-3.2v16.8c0,3,1.3,5.7,5.9,5.7v1h-19.6v-1c3.3,0,4.6-2.7,4.6-5.7v-32Z"/>
  </g>
  <path class="cls-3" d="M7.1,30.3c3.2,0,5.8-2.6,5.8-5.8s-2.6-5.8-5.8-5.8-5.8,2.6-5.8,5.8.1,1.3.3,1.9c-.9.3-1.6,1.2-1.6,2.3s1.1,2.4,2.4,2.4,1.8-.5,2.2-1.3c.8.4,1.6.6,2.5.6Z"/>
  <circle class="cls-1" cx="53.5" cy="5.8" r="5.8"/>
  <path class="cls-6" d="M64.6,14.6c-10.1-4.5-24.7,6.7-30,13.1s-3.1,3.9-1.7,4.8,2.2-1.4,4.7-3.8c7.1-6.9,15.8-11,20.7-7.7,7.4,5-1.6,22.3-20.3,36.9-3.6,2.8-6.5,3.8-6,4.8s3.4-.2,7.3-2.6c27.1-16.4,34.4-41.4,25.2-45.5Z"/>
  <path class="cls-5" d="M9.9,31.7c-11.8,5.3-1.5,19,8.3,24.6,1.9,1.1,5,2.9,5.4,2.2s-1.5-1.2-3.6-3c-4.8-4.4-12.1-12.5-8-17.8,4.9-6.4,16.2-1.3,19.3.8.6.4,1.9.5,1.9-.2,0-1.8-13.6-10.8-23.3-6.4Z"/>
</svg>